<svg width="115" height="30" viewBox="0 0 115 30" fill="none" xmlns="http://www.w3.org/2000/svg">
<circle cx="15" cy="15" r="15" fill="#1EC271"/>
<path d="M40.1775 21.0067C42.8472 21.0067 44.6472 19.7528 44.6472 17.3461V17.3056C44.6472 15.182 42.9281 14.4337 40.764 13.827C39.6112 13.4831 38.9843 13.2809 38.9843 12.8562V12.8157C38.9843 12.5124 39.2876 12.2899 39.8742 12.2899C40.7438 12.2899 41.9775 12.6742 43.1101 13.3011L44.4247 10.8742C43.1708 10.0652 41.5124 9.6 39.9146 9.6C37.3865 9.6 35.5258 10.8944 35.5258 13.2202V13.2607C35.5258 15.4652 37.2449 16.1933 39.409 16.7596C40.5618 17.0831 41.1685 17.2652 41.1685 17.6899V17.7303C41.1685 18.1146 40.8652 18.3169 40.1978 18.3169C39.0652 18.3169 37.6899 17.8921 36.436 17.0629L35 19.3888C36.5169 20.4809 38.3371 21.0067 40.1775 21.0067Z" fill="#012333"/>
<path d="M46.2181 20.764H50.0608V18.1955L51.0518 17.0427L53.2563 20.764H57.4833L53.5799 14.2112L57.3821 9.82247H53.0338L50.0608 13.4831V6H46.2181V20.764Z" fill="#012333"/>
<path d="M61.3416 21.0067C62.7775 21.0067 63.809 20.4607 64.5573 19.6315V20.764H68.3596V14.4742C68.3596 12.9371 68.0158 11.8045 67.1865 10.9955C66.3169 10.1258 64.982 9.66067 63.0202 9.66067C61.1393 9.66067 59.8247 10.0045 58.591 10.5101L59.3798 13.2202C60.3506 12.836 61.2405 12.6135 62.3933 12.6135C63.8697 12.6135 64.5775 13.2607 64.5775 14.3933V14.5753C63.9506 14.3528 62.9596 14.1506 61.9483 14.1506C59.3798 14.1506 57.6607 15.3236 57.6607 17.5888V17.6292C57.6607 19.8135 59.2584 21.0067 61.3416 21.0067ZM62.7169 18.6C61.9281 18.6 61.3618 18.1551 61.3618 17.4067V17.3663C61.3618 16.5573 62.009 16.0112 63.1214 16.0112C63.6877 16.0112 64.2337 16.1326 64.618 16.2944V16.8C64.618 17.8921 63.8292 18.6 62.7169 18.6Z" fill="#012333"/>
<path d="M70.3139 24H74.1566V19.4292C74.8645 20.2584 75.8353 21.0067 77.4937 21.0067C80.0825 21.0067 82.3274 18.8427 82.3274 15.2831V15.2427C82.3274 11.7438 80.0825 9.57977 77.4735 9.57977C75.8353 9.57977 74.905 10.3685 74.1566 11.2787V9.82247H70.3139V24ZM76.3005 17.791C75.0667 17.791 74.0757 16.7596 74.0757 15.3034V15.2629C74.0757 13.827 75.0667 12.7955 76.3005 12.7955C77.5544 12.7955 78.5454 13.827 78.5454 15.2629V15.3034C78.5454 16.7798 77.5544 17.791 76.3005 17.791Z" fill="#012333"/>
<path d="M83.9814 24H87.8241V19.4292C88.532 20.2584 89.5028 21.0067 91.1612 21.0067C93.75 21.0067 95.9949 18.8427 95.9949 15.2831V15.2427C95.9949 11.7438 93.75 9.57977 91.141 9.57977C89.5028 9.57977 88.5724 10.3685 87.8241 11.2787V9.82247H83.9814V24ZM89.9679 17.791C88.7342 17.791 87.7432 16.7596 87.7432 15.3034V15.2629C87.7432 13.827 88.7342 12.7955 89.9679 12.7955C91.2219 12.7955 92.2129 13.827 92.2129 15.2629V15.3034C92.2129 16.7798 91.2219 17.791 89.9679 17.791Z" fill="#012333"/>
<path d="M97.4062 13.9281C99.9343 13.8472 101.552 12.8157 101.552 9.82247V6.60674H97.568V10.5506H99.1051C99.1658 11.6427 98.4377 12.3101 97.0826 12.4517L97.4062 13.9281Z" fill="#012333"/>
<path d="M107.529 21.0067C109.168 21.0067 110.118 20.218 110.866 19.3079V20.764H114.709V6H110.866V11.1573C110.138 10.3281 109.168 9.57977 107.509 9.57977C104.92 9.57977 102.696 11.7438 102.696 15.3034V15.3438C102.696 18.8427 104.941 21.0067 107.529 21.0067ZM108.702 17.791C107.469 17.791 106.457 16.7596 106.457 15.3034V15.2629C106.457 13.8067 107.469 12.7955 108.702 12.7955C109.936 12.7955 110.927 13.827 110.927 15.2629V15.3034C110.927 16.7596 109.936 17.791 108.702 17.791Z" fill="#012333"/>
</svg>
